<mxfile modified="2022-05-20T01:35:39.416Z" host="app.diagrams.net" agent="5.0 (Windows NT 10.0; Win64; x64) AppleWebKit/537.36 (KHTML, like Gecko) Chrome/101.0.4951.54 Safari/537.36" etag="BOzUMHToPiHeytrnrphL" compressed="false" version="18.0.8" type="google">
  <diagram id="0Aba1Fe3TOsbE1_hAfhw" name="Page-297">
    <mxGraphModel grid="1" page="1" gridSize="10" guides="1" tooltips="1" connect="1" arrows="1" fold="1" pageScale="1" pageWidth="827" pageHeight="1169" math="0" shadow="0">
      <root>
        <mxCell id="AunOp6tj3Su9M6bsfKM8-0" />
        <mxCell id="AunOp6tj3Su9M6bsfKM8-1" value="Title/Diagram" parent="AunOp6tj3Su9M6bsfKM8-0" />
        <mxCell id="AunOp6tj3Su9M6bsfKM8-5" value="&lt;font style=&quot;font-size: 12px&quot;&gt;&lt;span&gt;Diagram: Base System Logical Module - Sequencing - Common Workflows&lt;/span&gt;&lt;/font&gt;" style="text;strokeColor=none;fillColor=none;html=1;fontSize=10;fontStyle=2;verticalAlign=middle;align=left;shadow=0;glass=0;comic=0;opacity=30;fontColor=#808080;" vertex="1" parent="AunOp6tj3Su9M6bsfKM8-1">
          <mxGeometry x="120" y="420" width="520" height="20" as="geometry" />
        </mxCell>
        <mxCell id="AunOp6tj3Su9M6bsfKM8-7" value="Diagram" parent="AunOp6tj3Su9M6bsfKM8-0" />
        <mxCell id="AunOp6tj3Su9M6bsfKM8-8" value="Onboarding" style="rounded=0;whiteSpace=wrap;html=1;" vertex="1" parent="AunOp6tj3Su9M6bsfKM8-7">
          <mxGeometry x="300" y="240" width="80" height="40" as="geometry" />
        </mxCell>
        <mxCell id="AunOp6tj3Su9M6bsfKM8-10" value="Offboarding" style="rounded=0;whiteSpace=wrap;html=1;" vertex="1" parent="AunOp6tj3Su9M6bsfKM8-7">
          <mxGeometry x="300" y="290" width="80" height="40" as="geometry" />
        </mxCell>
        <mxCell id="AunOp6tj3Su9M6bsfKM8-11" value="Publishing" style="rounded=0;whiteSpace=wrap;html=1;" vertex="1" parent="AunOp6tj3Su9M6bsfKM8-7">
          <mxGeometry x="480" y="240" width="80" height="40" as="geometry" />
        </mxCell>
        <mxCell id="AunOp6tj3Su9M6bsfKM8-12" value="Product Review &amp;amp; Curation" style="rounded=0;whiteSpace=wrap;html=1;" vertex="1" parent="AunOp6tj3Su9M6bsfKM8-7">
          <mxGeometry x="480" y="340" width="80" height="40" as="geometry" />
        </mxCell>
        <mxCell id="AunOp6tj3Su9M6bsfKM8-13" value="Person" style="rounded=0;whiteSpace=wrap;html=1;fillColor=#f5f5f5;strokeColor=#666666;fontColor=#333333;" vertex="1" parent="AunOp6tj3Su9M6bsfKM8-7">
          <mxGeometry x="300" y="190" width="80" height="40" as="geometry" />
        </mxCell>
        <mxCell id="AunOp6tj3Su9M6bsfKM8-14" value="Product" style="rounded=0;whiteSpace=wrap;html=1;fillColor=#f5f5f5;strokeColor=#666666;fontColor=#333333;" vertex="1" parent="AunOp6tj3Su9M6bsfKM8-7">
          <mxGeometry x="480" y="190" width="80" height="40" as="geometry" />
        </mxCell>
        <mxCell id="AunOp6tj3Su9M6bsfKM8-15" value="Group" style="rounded=0;whiteSpace=wrap;html=1;fillColor=#f5f5f5;strokeColor=#666666;fontColor=#333333;" vertex="1" parent="AunOp6tj3Su9M6bsfKM8-7">
          <mxGeometry x="390" y="190" width="80" height="40" as="geometry" />
        </mxCell>
        <mxCell id="AunOp6tj3Su9M6bsfKM8-16" value="Invitation to a Group Role" style="rounded=0;whiteSpace=wrap;html=1;" vertex="1" parent="AunOp6tj3Su9M6bsfKM8-7">
          <mxGeometry x="390" y="240" width="80" height="40" as="geometry" />
        </mxCell>
        <mxCell id="AunOp6tj3Su9M6bsfKM8-17" value="Transfer of Accountable Role" style="rounded=0;whiteSpace=wrap;html=1;" vertex="1" parent="AunOp6tj3Su9M6bsfKM8-7">
          <mxGeometry x="390" y="290" width="80" height="40" as="geometry" />
        </mxCell>
        <mxCell id="AunOp6tj3Su9M6bsfKM8-18" value="Support" style="rounded=0;whiteSpace=wrap;html=1;fillColor=#f5f5f5;strokeColor=#666666;fontColor=#333333;" vertex="1" parent="AunOp6tj3Su9M6bsfKM8-7">
          <mxGeometry x="210" y="190" width="80" height="40" as="geometry" />
        </mxCell>
        <mxCell id="AunOp6tj3Su9M6bsfKM8-19" value="Temporary Delegation" style="rounded=0;whiteSpace=wrap;html=1;" vertex="1" parent="AunOp6tj3Su9M6bsfKM8-7">
          <mxGeometry x="210" y="240" width="80" height="40" as="geometry" />
        </mxCell>
        <mxCell id="AunOp6tj3Su9M6bsfKM8-21" value="System" style="rounded=0;whiteSpace=wrap;html=1;fillColor=#f5f5f5;strokeColor=#666666;fontColor=#333333;" vertex="1" parent="AunOp6tj3Su9M6bsfKM8-7">
          <mxGeometry x="120" y="190" width="80" height="40" as="geometry" />
        </mxCell>
        <mxCell id="AunOp6tj3Su9M6bsfKM8-22" value="Key Configuration&lt;br&gt;Changes" style="rounded=0;whiteSpace=wrap;html=1;" vertex="1" parent="AunOp6tj3Su9M6bsfKM8-7">
          <mxGeometry x="120" y="240" width="80" height="40" as="geometry" />
        </mxCell>
        <mxCell id="AunOp6tj3Su9M6bsfKM8-23" value="Key Group Configuration&lt;br&gt;Changes" style="rounded=0;whiteSpace=wrap;html=1;" vertex="1" parent="AunOp6tj3Su9M6bsfKM8-7">
          <mxGeometry x="390" y="340" width="80" height="40" as="geometry" />
        </mxCell>
        <mxCell id="NBLbae5YHQ7VUu8_GUrS-0" value="Endorsement" style="rounded=0;whiteSpace=wrap;html=1;" vertex="1" parent="AunOp6tj3Su9M6bsfKM8-7">
          <mxGeometry x="480" y="290" width="80" height="40" as="geometry" />
        </mxCell>
        <mxCell id="NBLbae5YHQ7VUu8_GUrS-1" value="Feedback" style="rounded=0;whiteSpace=wrap;html=1;fillColor=#f5f5f5;strokeColor=#666666;fontColor=#333333;" vertex="1" parent="AunOp6tj3Su9M6bsfKM8-7">
          <mxGeometry x="570" y="190" width="80" height="40" as="geometry" />
        </mxCell>
        <mxCell id="NBLbae5YHQ7VUu8_GUrS-2" value="Comment&lt;br&gt;Review" style="rounded=0;whiteSpace=wrap;html=1;" vertex="1" parent="AunOp6tj3Su9M6bsfKM8-7">
          <mxGeometry x="570" y="240" width="80" height="40" as="geometry" />
        </mxCell>
        <mxCell id="NBLbae5YHQ7VUu8_GUrS-3" value="Support&lt;br&gt;Request" style="rounded=0;whiteSpace=wrap;html=1;" vertex="1" parent="AunOp6tj3Su9M6bsfKM8-7">
          <mxGeometry x="570" y="290" width="80" height="40" as="geometry" />
        </mxCell>
      </root>
    </mxGraphModel>
  </diagram>
</mxfile>
